<svg xmlns="http://www.w3.org/2000/svg" width="941" height="1672" viewBox="0 0 941 1672">
  <defs>
    <linearGradient id="bg" x1="0" y1="0" x2="1" y2="1">
      <stop offset="0" stop-color="#2f1b3d"/>
      <stop offset="1" stop-color="#0f172a"/>
    </linearGradient>
    <radialGradient id="glow" cx="50%" cy="42%" r="58%">
      <stop offset="0" stop-color="#facc15" stop-opacity="0.72"/>
      <stop offset="1" stop-color="#2f1b3d" stop-opacity="0"/>
    </radialGradient>
    <filter id="blur"><feGaussianBlur stdDeviation="18"/></filter>
    <filter id="softShadow"><feDropShadow dx="0" dy="22" stdDeviation="24" flood-color="#020617" flood-opacity="0.48"/></filter>
  </defs>
  <rect width="941" height="1672" fill="url(#bg)"/>
  <rect width="941" height="1672" fill="url(#glow)" opacity="0.82"/>
  <circle cx="780" cy="286" r="210" fill="#f97316" opacity="0.14" filter="url(#blur)"/>
  <circle cx="158" cy="1160" r="270" fill="#facc15" opacity="0.12" filter="url(#blur)"/>
  
    <circle cx="144" cy="240" r="3" fill="#fff7ed" opacity="0.42"/>
    <circle cx="735" cy="188" r="4" fill="#f97316" opacity="0.48"/>
    <circle cx="812" cy="482" r="3" fill="#facc15" opacity="0.42"/>
    <path d="M86 1050 C220 840 390 874 470 640 C560 850 720 826 858 1050" fill="none" stroke="#f97316" stroke-width="10" opacity="0.45"/>
    <path d="M146 1100 C300 1000 470 1024 620 930 C744 852 850 868 941 790" fill="none" stroke="#facc15" stroke-width="6" opacity="0.4"/>
    <circle cx="470" cy="585" r="94" fill="#facc15" opacity="0.16" stroke="#f97316" stroke-width="6"/>
  <rect x="68" y="82" width="805" height="1508" rx="30" fill="none" stroke="#f97316" stroke-width="4" opacity="0.66"/>
  <rect x="92" y="108" width="757" height="1458" rx="22" fill="#020617" opacity="0.12"/>
  <text x="104" y="168" fill="#f97316" font-family="Microsoft YaHei, Arial, sans-serif" font-size="25" font-weight="800">AI MANHUA ORIGINAL COVER</text>
  <text x="104" y="214" fill="#fff7ed" font-family="Microsoft YaHei, Arial, sans-serif" font-size="25" opacity="0.72">神明修理 · 雨巷神祠</text>
  <g filter="url(#softShadow)">
    <path d="M470 374 L650 528 L598 812 L470 950 L342 812 L290 528 Z" fill="#facc15" opacity="0.7" stroke="#f97316" stroke-width="9"/>
    <path d="M342 528 L598 812 M650 528 L342 812 M470 374 L470 950" stroke="#fff7ed" stroke-width="4" opacity="0.38"/>
    <circle cx="470" cy="654" r="92" fill="#020617" opacity="0.22"/>
    <text x="470" y="670" text-anchor="middle" fill="#fff7ed" font-family="Microsoft YaHei, Arial, sans-serif" font-size="40" font-weight="800">断雨伞骨</text>
    <g opacity="0.92">
    <ellipse cx="470" cy="922" rx="122" ry="40" fill="#020617" opacity="0.42"/>
    <circle cx="470" cy="702" r="74" fill="#111827" stroke="#f97316" stroke-width="6"/>
    <path d="M330 1040 C350 870 402 788 470 788 C538 788 590 870 610 1040 Z" fill="#111827" stroke="#f97316" stroke-width="6"/>
    <path d="M408 680 C440 715 505 715 538 680" fill="none" stroke="#facc15" stroke-width="7" opacity="0.7"/>
    <path d="M332 912 C244 906 208 836 188 750 M608 912 C696 906 732 836 752 750" fill="none" stroke="#f97316" stroke-width="12" opacity="0.52"/>
    <text x="470" y="1130" text-anchor="middle" fill="#fff7ed" font-family="Microsoft YaHei, Arial, sans-serif" font-size="30" font-weight="700" opacity="0.9">修伞铺少女</text>
  </g>
  </g>
  <rect x="92" y="1156" width="757" height="328" rx="24" fill="#020617" opacity="0.58"/>
  <text x="122" y="1198" fill="#fff7ed" font-family="Microsoft YaHei, Arial, sans-serif" font-size="61" font-weight="900">雨神修理铺：我修坏</text>
  <text x="122" y="1274" fill="#fff7ed" font-family="Microsoft YaHei, Arial, sans-serif" font-size="61" font-weight="900">的不是伞是天命</text>
  <text x="122" y="1430" fill="#f97316" font-family="Microsoft YaHei, Arial, sans-serif" font-size="28" font-weight="800">核心道具：断雨伞骨</text>
  <text x="122" y="1476" fill="#fff7ed" font-family="Microsoft YaHei, Arial, sans-serif" font-size="25" opacity="0.78">AI神明修理漫剧 / 失职雨神压迫局</text>
  <path d="M122 1518 L816 1518" stroke="#f97316" stroke-width="3" opacity="0.46"/>
  <text x="122" y="1558" fill="#fff7ed" font-family="Microsoft YaHei, Arial, sans-serif" font-size="22" opacity="0.62">前三集验证包 · 买断 · 按集 · 分成</text>
</svg>
