<svg xmlns="http://www.w3.org/2000/svg" width="941" height="1672" viewBox="0 0 941 1672">
  <defs>
    <linearGradient id="bg" x1="0" y1="0" x2="1" y2="1">
      <stop offset="0" stop-color="#2f1b3d"/>
      <stop offset="1" stop-color="#0f172a"/>
    </linearGradient>
    <radialGradient id="glow" cx="50%" cy="42%" r="58%">
      <stop offset="0" stop-color="#facc15" stop-opacity="0.72"/>
      <stop offset="1" stop-color="#2f1b3d" stop-opacity="0"/>
    </radialGradient>
    <filter id="blur"><feGaussianBlur stdDeviation="18"/></filter>
    <filter id="softShadow"><feDropShadow dx="0" dy="22" stdDeviation="24" flood-color="#020617" flood-opacity="0.48"/></filter>
  </defs>
  <rect width="941" height="1672" fill="url(#bg)"/>
  <rect width="941" height="1672" fill="url(#glow)" opacity="0.82"/>
  <circle cx="780" cy="286" r="210" fill="#f97316" opacity="0.14" filter="url(#blur)"/>
  <circle cx="158" cy="1160" r="270" fill="#facc15" opacity="0.12" filter="url(#blur)"/>
  
    <circle cx="144" cy="240" r="3" fill="#fff7ed" opacity="0.42"/>
    <circle cx="735" cy="188" r="4" fill="#f97316" opacity="0.48"/>
    <circle cx="812" cy="482" r="3" fill="#facc15" opacity="0.42"/>
    <rect x="118" y="530" width="704" height="602" rx="28" fill="#020617" opacity="0.35" stroke="#f97316" stroke-width="4"/>
    <g stroke="#facc15" stroke-width="3" opacity="0.28"><path d="M190 560 L190 1098"/><path d="M300 560 L300 1098"/><path d="M410 560 L410 1098"/><path d="M520 560 L520 1098"/><path d="M630 560 L630 1098"/><path d="M740 560 L740 1098"/><path d="M140 640 L800 640"/><path d="M140 730 L800 730"/><path d="M140 820 L800 820"/><path d="M140 910 L800 910"/><path d="M140 1000 L800 1000"/></g>
    <rect x="604" y="342" width="160" height="292" rx="24" fill="#0f172a" stroke="#f97316" stroke-width="7" opacity="0.72"/><circle cx="684" cy="598" r="10" fill="#f97316" opacity="0.8"/>
  <rect x="68" y="82" width="805" height="1508" rx="30" fill="none" stroke="#f97316" stroke-width="4" opacity="0.66"/>
  <rect x="92" y="108" width="757" height="1458" rx="22" fill="#020617" opacity="0.12"/>
  <text x="104" y="168" fill="#f97316" font-family="Microsoft YaHei, Arial, sans-serif" font-size="25" font-weight="800">AI SHORT DRAMA ORIGINAL COVER</text>
  <text x="104" y="214" fill="#fff7ed" font-family="Microsoft YaHei, Arial, sans-serif" font-size="25" opacity="0.72">离婚逆袭 · 律所会议室</text>
  <g filter="url(#softShadow)">
    <rect x="312" y="450" width="316" height="420" rx="42" fill="#0f172a" opacity="0.72" stroke="#f97316" stroke-width="8"/>
    <circle cx="470" cy="596" r="96" fill="#facc15" opacity="0.2" stroke="#f97316" stroke-width="5"/>
    <path d="M380 742 C430 690 510 690 560 742" fill="none" stroke="#fff7ed" stroke-width="8" opacity="0.62"/>
    <text x="470" y="660" text-anchor="middle" fill="#fff7ed" font-family="Microsoft YaHei, Arial, sans-serif" font-size="40" font-weight="800">倒计时协议</text>
    <g opacity="0.92">
    <ellipse cx="470" cy="922" rx="122" ry="40" fill="#020617" opacity="0.42"/>
    <circle cx="470" cy="702" r="74" fill="#111827" stroke="#f97316" stroke-width="6"/>
    <path d="M330 1040 C350 870 402 788 470 788 C538 788 590 870 610 1040 Z" fill="#111827" stroke="#f97316" stroke-width="6"/>
    <path d="M408 680 C440 715 505 715 538 680" fill="none" stroke="#facc15" stroke-width="7" opacity="0.7"/>
    <path d="M332 912 C244 906 208 836 188 750 M608 912 C696 906 732 836 752 750" fill="none" stroke="#f97316" stroke-width="12" opacity="0.52"/>
    <text x="470" y="1130" text-anchor="middle" fill="#fff7ed" font-family="Microsoft YaHei, Arial, sans-serif" font-size="30" font-weight="700" opacity="0.9">离婚谈判师</text>
  </g>
  </g>
  <rect x="92" y="1156" width="757" height="328" rx="24" fill="#020617" opacity="0.58"/>
  <text x="122" y="1198" fill="#fff7ed" font-family="Microsoft YaHei, Arial, sans-serif" font-size="61" font-weight="900">离婚倒计时：我的律</text>
  <text x="122" y="1274" fill="#fff7ed" font-family="Microsoft YaHei, Arial, sans-serif" font-size="61" font-weight="900">师是前任</text>
  <text x="122" y="1430" fill="#f97316" font-family="Microsoft YaHei, Arial, sans-serif" font-size="28" font-weight="800">核心道具：倒计时协议</text>
  <text x="122" y="1476" fill="#fff7ed" font-family="Microsoft YaHei, Arial, sans-serif" font-size="25" opacity="0.78">离婚逆袭AI短剧 / 前夫家族压迫局</text>
  <path d="M122 1518 L816 1518" stroke="#f97316" stroke-width="3" opacity="0.46"/>
  <text x="122" y="1558" fill="#fff7ed" font-family="Microsoft YaHei, Arial, sans-serif" font-size="22" opacity="0.62">前三集验证包 · 买断 · 按集 · 分成</text>
</svg>
